<svg xmlns="http://www.w3.org/2000/svg" viewBox="-110 -210 220 230" role="img"><g id="beaker" opacity="1" transform="translate(0 0) rotate(0) scale(1 1)"><g ><g id="beaker.v10" opacity="1" transform="translate(0 0) rotate(0) scale(1 1)"><ellipse cx="0" cy="7" rx="65" ry="9" fill="#D4D3C4"></ellipse></g><g id="beaker.body" opacity="1" transform="translate(0 0) rotate(0) scale(1 1)"><g ><g id="beaker.v1" opacity="1" transform="translate(0 0) rotate(0) scale(1 1)"><path d="M-72 -169 H70 L57 -157 V-6 H-61 V-153Z" fill="#C3E2DF" stroke="#354752" stroke-width="2" stroke-linecap="round" stroke-linejoin="round"></path></g><g id="beaker.v2" opacity="1" transform="translate(0 0) rotate(0) scale(1 1)"><rect x="-52" y="-85" width="100" height="70" rx="1" fill="#5288C4" stroke="#354752" stroke-width="1.8"></rect></g><g id="beaker.v3" opacity="1" transform="translate(0 0) rotate(0) scale(1 1)"><line x1="16" y1="-134" x2="40" y2="-134" stroke="#AAB4AD" stroke-width="3" stroke-linecap="round"></line></g><g id="beaker.v4" opacity="1" transform="translate(0 0) rotate(0) scale(1 1)"><line x1="16" y1="-120" x2="28" y2="-120" stroke="#AAB4AD" stroke-width="3" stroke-linecap="round"></line></g><g id="beaker.v5" opacity="1" transform="translate(0 0) rotate(0) scale(1 1)"><line x1="16" y1="-106" x2="40" y2="-106" stroke="#AAB4AD" stroke-width="3" stroke-linecap="round"></line></g><g id="beaker.v6" opacity="1" transform="translate(0 0) rotate(0) scale(1 1)"><line x1="16" y1="-92" x2="28" y2="-92" stroke="#AAB4AD" stroke-width="3" stroke-linecap="round"></line></g><g id="beaker.v7" opacity="1" transform="translate(0 0) rotate(0) scale(1 1)"><line x1="16" y1="-78" x2="40" y2="-78" stroke="#AAB4AD" stroke-width="3" stroke-linecap="round"></line></g><g id="beaker.v8" opacity="1" transform="translate(0 0) rotate(0) scale(1 1)"><line x1="16" y1="-64" x2="28" y2="-64" stroke="#AAB4AD" stroke-width="3" stroke-linecap="round"></line></g><g id="beaker.v9" opacity="1" transform="translate(0 0) rotate(0) scale(1 1)"><line x1="16" y1="-50" x2="40" y2="-50" stroke="#AAB4AD" stroke-width="3" stroke-linecap="round"></line></g></g></g></g></g></svg>