<svg xmlns="http://www.w3.org/2000/svg" viewBox="-110 -210 220 230" role="img"><g id="broken-chain" opacity="1" transform="translate(0 0) rotate(0) scale(1 1)"><g ><g id="broken-chain.v5" opacity="1" transform="translate(0 0) rotate(0) scale(1 1)"><ellipse cx="0" cy="7" rx="65" ry="9" fill="#D4D3C4"></ellipse></g><g id="broken-chain.body" opacity="1" transform="translate(0 0) rotate(0) scale(1 1)"><g ><g id="broken-chain.v1" opacity="1" transform="translate(0 0) rotate(0) scale(1 1)"><path d="M-57 -85 Q-91 -59 -99 -91 Q-108 -114 -84 -135 L-51 -163 Q-23 -182 -9 -153" fill="none" stroke="#5288C4" stroke-width="16" stroke-linecap="round" stroke-linejoin="round"></path></g><g id="broken-chain.v2" opacity="1" transform="translate(0 0) rotate(0) scale(1 1)"><path d="M57 -101 Q91 -127 99 -95 Q108 -72 84 -51 L51 -23 Q23 -4 9 -33" fill="none" stroke="#EF806B" stroke-width="16" stroke-linecap="round" stroke-linejoin="round"></path></g><g id="broken-chain.v3" opacity="1" transform="translate(0 0) rotate(0) scale(1 1)"><line x1="-7" y1="-104" x2="7" y2="-124" stroke="#EDB94D" stroke-width="4" stroke-linecap="round"></line></g><g id="broken-chain.v4" opacity="1" transform="translate(0 0) rotate(0) scale(1 1)"><line x1="-7" y1="-76" x2="10" y2="-62" stroke="#EDB94D" stroke-width="4" stroke-linecap="round"></line></g></g></g></g></g></svg>