<svg xmlns="http://www.w3.org/2000/svg" viewBox="-110 -210 220 230" role="img"><g id="cloud-storage" opacity="1" transform="translate(0 0) rotate(0) scale(1 1)"><g ><g id="cloud-storage.v5" opacity="1" transform="translate(0 0) rotate(0) scale(1 1)"><ellipse cx="0" cy="7" rx="65" ry="9" fill="#D4D3C4"></ellipse></g><g id="cloud-storage.body" opacity="1" transform="translate(0 0) rotate(0) scale(1 1)"><g ><g id="cloud-storage.v1" opacity="1" transform="translate(0 0) rotate(0) scale(1 1)"><path d="M-72 -58 Q-117 -97 -65 -123 Q-48 -186 14 -157 Q66 -174 78 -124 Q124 -91 79 -58Z" fill="#C3E2DF" stroke="#354752" stroke-width="2" stroke-linecap="round" stroke-linejoin="round"></path></g><g id="cloud-storage.v2" opacity="1" transform="translate(0 0) rotate(0) scale(1 1)"><rect x="-31" y="-75" width="62" height="65" rx="7" fill="#5288C4" stroke="#354752" stroke-width="1.8"></rect></g><g id="cloud-storage.v3" opacity="1" transform="translate(0 0) rotate(0) scale(1 1)"><line x1="-18" y1="-56" x2="16" y2="-56" stroke="#FFFDF4" stroke-width="3" stroke-linecap="round"></line></g><g id="cloud-storage.v4" opacity="1" transform="translate(0 0) rotate(0) scale(1 1)"><line x1="-18" y1="-40" x2="16" y2="-40" stroke="#FFFDF4" stroke-width="3" stroke-linecap="round"></line></g></g></g></g></g></svg>