<svg xmlns="http://www.w3.org/2000/svg" viewBox="-110 -210 220 230" role="img"><g id="graduation-cap" opacity="1" transform="translate(0 0) rotate(0) scale(1 1)"><g ><g id="graduation-cap.v5" opacity="1" transform="translate(0 0) rotate(0) scale(1 1)"><ellipse cx="0" cy="7" rx="65" ry="9" fill="#D4D3C4"></ellipse></g><g id="graduation-cap.body" opacity="1" transform="translate(0 0) rotate(0) scale(1 1)"><g ><g id="graduation-cap.v1" opacity="1" transform="translate(0 0) rotate(0) scale(1 1)"><path d="M-97 -129 L0 -173 L97 -129 L0 -82Z" fill="#5288C4" stroke="#354752" stroke-width="2" stroke-linecap="round" stroke-linejoin="round"></path></g><g id="graduation-cap.v2" opacity="1" transform="translate(0 0) rotate(0) scale(1 1)"><path d="M-56 -107 V-61 Q0 -31 56 -61 V-107 L0 -82Z" fill="#233B49" stroke="#354752" stroke-width="2" stroke-linecap="round" stroke-linejoin="round"></path></g><g id="graduation-cap.v3" opacity="1" transform="translate(0 0) rotate(0) scale(1 1)"><path d="M0 -126 L83 -105 V-45" fill="none" stroke="#EDB94D" stroke-width="4" stroke-linecap="round" stroke-linejoin="round"></path></g><g id="graduation-cap.v4" opacity="1" transform="translate(0 0) rotate(0) scale(1 1)"><rect x="76" y="-48" width="15" height="34" rx="5" fill="#EDB94D" stroke="#354752" stroke-width="1.8"></rect></g></g></g></g></g></svg>