<svg xmlns="http://www.w3.org/2000/svg" viewBox="-110 -210 220 230" role="img"><g id="hospital" opacity="1" transform="translate(0 0) rotate(0) scale(1 1)"><g ><g id="hospital.v12" opacity="1" transform="translate(0 0) rotate(0) scale(1 1)"><ellipse cx="0" cy="7" rx="65" ry="9" fill="#D4D3C4"></ellipse></g><g id="hospital.body" opacity="1" transform="translate(0 0) rotate(0) scale(1 1)"><g ><g id="hospital.v1" opacity="1" transform="translate(0 0) rotate(0) scale(1 1)"><rect x="-75" y="-133" width="150" height="130" rx="4" fill="#FFFDFC" stroke="#354752" stroke-width="1.8"></rect></g><g id="hospital.v2" opacity="1" transform="translate(0 0) rotate(0) scale(1 1)"><path d="M-87 -134 L0 -192 L87 -134Z" fill="#EF806B" stroke="#354752" stroke-width="2" stroke-linecap="round" stroke-linejoin="round"></path></g><g id="hospital.v3" opacity="1" transform="translate(0 0) rotate(0) scale(1 1)"><rect x="-57" y="-113" width="25" height="25" rx="3" fill="#C3E2DF" stroke="#354752" stroke-width="1.8"></rect></g><g id="hospital.v4" opacity="1" transform="translate(0 0) rotate(0) scale(1 1)"><rect x="-13" y="-113" width="25" height="25" rx="3" fill="#C3E2DF" stroke="#354752" stroke-width="1.8"></rect></g><g id="hospital.v5" opacity="1" transform="translate(0 0) rotate(0) scale(1 1)"><rect x="31" y="-113" width="25" height="25" rx="3" fill="#C3E2DF" stroke="#354752" stroke-width="1.8"></rect></g><g id="hospital.v6" opacity="1" transform="translate(0 0) rotate(0) scale(1 1)"><rect x="-57" y="-75" width="25" height="25" rx="3" fill="#C3E2DF" stroke="#354752" stroke-width="1.8"></rect></g><g id="hospital.v7" opacity="1" transform="translate(0 0) rotate(0) scale(1 1)"><rect x="-13" y="-75" width="25" height="25" rx="3" fill="#C3E2DF" stroke="#354752" stroke-width="1.8"></rect></g><g id="hospital.v8" opacity="1" transform="translate(0 0) rotate(0) scale(1 1)"><rect x="31" y="-75" width="25" height="25" rx="3" fill="#C3E2DF" stroke="#354752" stroke-width="1.8"></rect></g><g id="hospital.v9" opacity="1" transform="translate(0 0) rotate(0) scale(1 1)"><rect x="-18" y="-40" width="36" height="40" rx="5" fill="#8E7158" stroke="#354752" stroke-width="1.8"></rect></g><g id="hospital.v10" opacity="1" transform="translate(0 0) rotate(0) scale(1 1)"><line x1="-12" y1="-152" x2="12" y2="-152" stroke="#EF806B" stroke-width="6" stroke-linecap="round"></line></g><g id="hospital.v11" opacity="1" transform="translate(0 0) rotate(0) scale(1 1)"><line x1="0" y1="-164" x2="0" y2="-140" stroke="#EF806B" stroke-width="6" stroke-linecap="round"></line></g></g></g></g></g></svg>