<svg xmlns="http://www.w3.org/2000/svg" viewBox="-110 -210 220 230" role="img"><g id="owl" opacity="1" transform="translate(0 0) rotate(0) scale(1 1)"><g ><g id="owl.v9" opacity="1" transform="translate(0 0) rotate(0) scale(1 1)"><ellipse cx="0" cy="7" rx="65" ry="9" fill="#D4D3C4"></ellipse></g><g id="owl.body" opacity="1" transform="translate(0 0) rotate(0) scale(1 1)"><g ><g id="owl.v1" opacity="1" transform="translate(0 0) rotate(0) scale(1 1)"><ellipse cx="0" cy="-82" rx="67" ry="78" fill="#D8AD79"></ellipse></g><g id="owl.v2" opacity="1" transform="translate(0 0) rotate(0) scale(1 1)"><path d="M-56 -137 L-68 -188 L-16 -153 M56 -137 L68 -188 L16 -153Z" fill="#8E7158" stroke="#354752" stroke-width="2" stroke-linecap="round" stroke-linejoin="round"></path></g><g id="owl.v3" opacity="1" transform="translate(0 0) rotate(0) scale(1 1)"><circle cx="-27" cy="-119" r="29" fill="#FFFDF4" stroke="#354752" stroke-width="1.6"></circle></g><g id="owl.v4" opacity="1" transform="translate(0 0) rotate(0) scale(1 1)"><circle cx="27" cy="-119" r="29" fill="#FFFDF4" stroke="#354752" stroke-width="1.6"></circle></g><g id="owl.v5" opacity="1" transform="translate(0 0) rotate(0) scale(1 1)"><circle cx="-27" cy="-119" r="9" fill="#233844" stroke="#354752" stroke-width="1.6"></circle></g><g id="owl.v6" opacity="1" transform="translate(0 0) rotate(0) scale(1 1)"><circle cx="27" cy="-119" r="9" fill="#233844" stroke="#354752" stroke-width="1.6"></circle></g><g id="owl.v7" opacity="1" transform="translate(0 0) rotate(0) scale(1 1)"><path d="M-10 -99 H10 L0 -82Z" fill="#EDB94D" stroke="#354752" stroke-width="2" stroke-linecap="round" stroke-linejoin="round"></path></g><g id="owl.v8" opacity="1" transform="translate(0 0) rotate(0) scale(1 1)"><path d="M-45 -73 Q0 -30 45 -73" fill="none" stroke="#8E7158" stroke-width="4" stroke-linecap="round" stroke-linejoin="round"></path></g></g></g></g></g></svg>