<svg xmlns="http://www.w3.org/2000/svg" viewBox="-250 -315 500 360" role="img"><g id="paper" opacity="1" transform="translate(0 0) rotate(0) scale(1 1)"><g ><g id="paper.n1" opacity="1" transform="translate(0 0) rotate(0) scale(1 1)"><rect x="-48" y="-130" width="103" height="136" rx="8" fill="#D4D3C4" stroke="none" stroke-width="2"></rect></g><g id="paper.n2" opacity="1" transform="translate(0 0) rotate(0) scale(1 1)"><path d="M-54 -139 L20 -139 L49 -109 L49 0 L-54 0Z" fill="#FFFDF4" stroke="#354752" stroke-width="1.6" stroke-linecap="round" stroke-linejoin="round"></path></g><g id="paper.n3" opacity="1" transform="translate(0 0) rotate(0) scale(1 1)"><path d="M20 -139 L20 -109 L49 -109Z" fill="#EDB94D" stroke="none" stroke-width="2" stroke-linecap="round" stroke-linejoin="round"></path></g><g id="paper.n4" opacity="1" transform="translate(0 0) rotate(0) scale(1 1)"><rect x="-36" y="-113" width="24" height="8" rx="3" fill="#5288C4" stroke="none" stroke-width="2"></rect></g><g id="paper.n5" opacity="1" transform="translate(0 0) rotate(0) scale(1 1)"><line x1="-36" y1="-86" x2="25" y2="-86" stroke="#AAB4AD" stroke-width="3" stroke-linecap="round"></line></g><g id="paper.n6" opacity="1" transform="translate(0 0) rotate(0) scale(1 1)"><line x1="-36" y1="-69" x2="28" y2="-69" stroke="#AAB4AD" stroke-width="3" stroke-linecap="round"></line></g><g id="paper.n7" opacity="1" transform="translate(0 0) rotate(0) scale(1 1)"><line x1="-36" y1="-52" x2="12" y2="-52" stroke="#AAB4AD" stroke-width="3" stroke-linecap="round"></line></g><g id="paper.check" opacity="1" transform="translate(0 0) rotate(0) scale(1 1)"><g ><g id="paper.n8" opacity="1" transform="translate(0 0) rotate(0) scale(1 1)"><circle cx="22" cy="-18" r="19" fill="#219787"></circle></g><g id="paper.n9" opacity="1" transform="translate(0 0) rotate(0) scale(1 1)"><path d="M12 -18 L20 -11 L34 -27" fill="none" stroke="#FFFFFF" stroke-width="4" stroke-linecap="round" stroke-linejoin="round"></path></g></g></g></g></g></svg>