<svg xmlns="http://www.w3.org/2000/svg" viewBox="-110 -210 220 230" role="img"><g id="petri-dish" opacity="1" transform="translate(0 0) rotate(0) scale(1 1)"><g ><g id="petri-dish.v7" opacity="1" transform="translate(0 0) rotate(0) scale(1 1)"><ellipse cx="0" cy="7" rx="65" ry="9" fill="#D4D3C4"></ellipse></g><g id="petri-dish.body" opacity="1" transform="translate(0 0) rotate(0) scale(1 1)"><g ><g id="petri-dish.v1" opacity="1" transform="translate(0 0) rotate(0) scale(1 1)"><ellipse cx="0" cy="-61" rx="89" ry="42" fill="#C3E2DF"></ellipse></g><g id="petri-dish.v2" opacity="1" transform="translate(0 0) rotate(0) scale(1 1)"><path d="M-89 -62 V-42 Q0 22 89 -42 V-62" fill="none" stroke="#354752" stroke-width="3" stroke-linecap="round" stroke-linejoin="round"></path></g><g id="petri-dish.v3" opacity="1" transform="translate(0 0) rotate(0) scale(1 1)"><circle cx="0" cy="-68" r="9" fill="#219787" stroke="#354752" stroke-width="1.6"></circle></g><g id="petri-dish.v4" opacity="1" transform="translate(0 0) rotate(0) scale(1 1)"><circle cx="-38" cy="-57" r="10" fill="#219787" stroke="#354752" stroke-width="1.6"></circle></g><g id="petri-dish.v5" opacity="1" transform="translate(0 0) rotate(0) scale(1 1)"><circle cx="42" cy="-54" r="11" fill="#219787" stroke="#354752" stroke-width="1.6"></circle></g><g id="petri-dish.v6" opacity="1" transform="translate(0 0) rotate(0) scale(1 1)"><circle cx="20" cy="-87" r="12" fill="#219787" stroke="#354752" stroke-width="1.6"></circle></g></g></g></g></g></svg>