<svg xmlns="http://www.w3.org/2000/svg" viewBox="-110 -210 220 230" role="img"><g id="sewing-machine" opacity="1" transform="translate(0 0) rotate(0) scale(1 1)"><g ><g id="sewing-machine.v5" opacity="1" transform="translate(0 0) rotate(0) scale(1 1)"><ellipse cx="0" cy="7" rx="65" ry="9" fill="#D4D3C4"></ellipse></g><g id="sewing-machine.body" opacity="1" transform="translate(0 0) rotate(0) scale(1 1)"><g ><g id="sewing-machine.v1" opacity="1" transform="translate(0 0) rotate(0) scale(1 1)"><path d="M-78 -150 H36 Q65 -147 65 -115 V-89 H27 V-115 H-36 V-32 H79 V-9 H-84Z" fill="#219787" stroke="#354752" stroke-width="2" stroke-linecap="round" stroke-linejoin="round"></path></g><g id="sewing-machine.v2" opacity="1" transform="translate(0 0) rotate(0) scale(1 1)"><circle cx="63" cy="-137" r="23" fill="#D8AD79" stroke="#354752" stroke-width="1.6"></circle></g><g id="sewing-machine.v3" opacity="1" transform="translate(0 0) rotate(0) scale(1 1)"><line x1="33" y1="-86" x2="33" y2="-43" stroke="#354752" stroke-width="3" stroke-linecap="round"></line></g><g id="sewing-machine.v4" opacity="1" transform="translate(0 0) rotate(0) scale(1 1)"><rect x="-18" y="-39" width="78" height="7" rx="2" fill="#FFFDF4" stroke="#354752" stroke-width="1.8"></rect></g></g></g></g></g></svg>