<svg xmlns="http://www.w3.org/2000/svg" viewBox="-250 -315 500 360" role="img"><g id="shelf" opacity="1" transform="translate(0 0) rotate(0) scale(1 1)"><g ><g id="shelf.n1" opacity="1" transform="translate(0 0) rotate(0) scale(1 1)"><rect x="-110" y="-290" width="220" height="300" rx="12" fill="#8E7158" stroke="none" stroke-width="2"></rect></g><g id="shelf.n2" opacity="1" transform="translate(0 0) rotate(0) scale(1 1)"><rect x="-96" y="-276" width="192" height="275" rx="4" fill="#AA8D6C" stroke="none" stroke-width="2"></rect></g><g id="shelf.n3" opacity="1" transform="translate(0 0) rotate(0) scale(1 1)"><rect x="-80" y="-55" width="17" height="48" rx="3" fill="#5288C4" stroke="none" stroke-width="2"></rect></g><g id="shelf.n4" opacity="1" transform="translate(0 0) rotate(0) scale(1 1)"><line x1="-75" y1="-46" x2="-69" y2="-46" stroke="#FFFDF4" stroke-width="1.7" stroke-linecap="round"></line></g><g id="shelf.n5" opacity="1" transform="translate(0 0) rotate(0) scale(1 1)"><line x1="-75" y1="-16" x2="-69" y2="-16" stroke="#FFFDF4" stroke-width="1.4" stroke-linecap="round"></line></g><g id="shelf.n6" opacity="1" transform="translate(0 0) rotate(0) scale(1 1)"><rect x="-57" y="-66" width="17" height="59" rx="3" fill="#EF806B" stroke="none" stroke-width="2"></rect></g><g id="shelf.n7" opacity="1" transform="translate(0 0) rotate(0) scale(1 1)"><line x1="-52" y1="-57" x2="-46" y2="-57" stroke="#FFFDF4" stroke-width="1.7" stroke-linecap="round"></line></g><g id="shelf.n8" opacity="1" transform="translate(0 0) rotate(0) scale(1 1)"><line x1="-52" y1="-16" x2="-46" y2="-16" stroke="#FFFDF4" stroke-width="1.4" stroke-linecap="round"></line></g><g id="shelf.n9" opacity="1" transform="translate(0 0) rotate(0) scale(1 1)"><rect x="-34" y="-77" width="17" height="70" rx="3" fill="#EDB94D" stroke="none" stroke-width="2"></rect></g><g id="shelf.n10" opacity="1" transform="translate(0 0) rotate(0) scale(1 1)"><line x1="-29" y1="-68" x2="-23" y2="-68" stroke="#FFFDF4" stroke-width="1.7" stroke-linecap="round"></line></g><g id="shelf.n11" opacity="1" transform="translate(0 0) rotate(0) scale(1 1)"><line x1="-29" y1="-16" x2="-23" y2="-16" stroke="#FFFDF4" stroke-width="1.4" stroke-linecap="round"></line></g><g id="shelf.n12" opacity="1" transform="translate(0 0) rotate(0) scale(1 1)"><rect x="-11" y="-62" width="17" height="55" rx="3" fill="#219787" stroke="none" stroke-width="2"></rect></g><g id="shelf.n13" opacity="1" transform="translate(0 0) rotate(0) scale(1 1)"><line x1="-6" y1="-53" x2="0" y2="-53" stroke="#FFFDF4" stroke-width="1.7" stroke-linecap="round"></line></g><g id="shelf.n14" opacity="1" transform="translate(0 0) rotate(0) scale(1 1)"><line x1="-6" y1="-16" x2="0" y2="-16" stroke="#FFFDF4" stroke-width="1.4" stroke-linecap="round"></line></g><g id="shelf.n15" opacity="1" transform="translate(0 0) rotate(0) scale(1 1)"><rect x="12" y="-73" width="17" height="66" rx="3" fill="#5288C4" stroke="none" stroke-width="2"></rect></g><g id="shelf.n16" opacity="1" transform="translate(0 0) rotate(0) scale(1 1)"><line x1="17" y1="-64" x2="23" y2="-64" stroke="#FFFDF4" stroke-width="1.7" stroke-linecap="round"></line></g><g id="shelf.n17" opacity="1" transform="translate(0 0) rotate(0) scale(1 1)"><line x1="17" y1="-16" x2="23" y2="-16" stroke="#FFFDF4" stroke-width="1.4" stroke-linecap="round"></line></g><g id="shelf.n18" opacity="1" transform="translate(0 0) rotate(0) scale(1 1)"><rect x="35" y="-58" width="17" height="51" rx="3" fill="#EF806B" stroke="none" stroke-width="2"></rect></g><g id="shelf.n19" opacity="1" transform="translate(0 0) rotate(0) scale(1 1)"><line x1="40" y1="-49" x2="46" y2="-49" stroke="#FFFDF4" stroke-width="1.7" stroke-linecap="round"></line></g><g id="shelf.n20" opacity="1" transform="translate(0 0) rotate(0) scale(1 1)"><line x1="40" y1="-16" x2="46" y2="-16" stroke="#FFFDF4" stroke-width="1.4" stroke-linecap="round"></line></g><g id="shelf.n21" opacity="1" transform="translate(0 0) rotate(0) scale(1 1)"><rect x="58" y="-69" width="17" height="62" rx="3" fill="#EDB94D" stroke="none" stroke-width="2"></rect></g><g id="shelf.n22" opacity="1" transform="translate(0 0) rotate(0) scale(1 1)"><line x1="63" y1="-60" x2="69" y2="-60" stroke="#FFFDF4" stroke-width="1.7" stroke-linecap="round"></line></g><g id="shelf.n23" opacity="1" transform="translate(0 0) rotate(0) scale(1 1)"><line x1="63" y1="-16" x2="69" y2="-16" stroke="#FFFDF4" stroke-width="1.4" stroke-linecap="round"></line></g><g id="shelf.n24" opacity="1" transform="translate(0 0) rotate(0) scale(1 1)"><rect x="-105" y="-7" width="210" height="9" rx="2" fill="#D8AD79" stroke="none" stroke-width="2"></rect></g><g id="shelf.n25" opacity="1" transform="translate(0 0) rotate(0) scale(1 1)"><rect x="-80" y="-150" width="17" height="55" rx="3" fill="#EF806B" stroke="none" stroke-width="2"></rect></g><g id="shelf.n26" opacity="1" transform="translate(0 0) rotate(0) scale(1 1)"><line x1="-75" y1="-141" x2="-69" y2="-141" stroke="#FFFDF4" stroke-width="1.7" stroke-linecap="round"></line></g><g id="shelf.n27" opacity="1" transform="translate(0 0) rotate(0) scale(1 1)"><line x1="-75" y1="-104" x2="-69" y2="-104" stroke="#FFFDF4" stroke-width="1.4" stroke-linecap="round"></line></g><g id="shelf.n28" opacity="1" transform="translate(0 0) rotate(0) scale(1 1)"><rect x="-57" y="-161" width="17" height="66" rx="3" fill="#EDB94D" stroke="none" stroke-width="2"></rect></g><g id="shelf.n29" opacity="1" transform="translate(0 0) rotate(0) scale(1 1)"><line x1="-52" y1="-152" x2="-46" y2="-152" stroke="#FFFDF4" stroke-width="1.7" stroke-linecap="round"></line></g><g id="shelf.n30" opacity="1" transform="translate(0 0) rotate(0) scale(1 1)"><line x1="-52" y1="-104" x2="-46" y2="-104" stroke="#FFFDF4" stroke-width="1.4" stroke-linecap="round"></line></g><g id="shelf.n31" opacity="1" transform="translate(0 0) rotate(0) scale(1 1)"><rect x="-34" y="-146" width="17" height="51" rx="3" fill="#219787" stroke="none" stroke-width="2"></rect></g><g id="shelf.n32" opacity="1" transform="translate(0 0) rotate(0) scale(1 1)"><line x1="-29" y1="-137" x2="-23" y2="-137" stroke="#FFFDF4" stroke-width="1.7" stroke-linecap="round"></line></g><g id="shelf.n33" opacity="1" transform="translate(0 0) rotate(0) scale(1 1)"><line x1="-29" y1="-104" x2="-23" y2="-104" stroke="#FFFDF4" stroke-width="1.4" stroke-linecap="round"></line></g><g id="shelf.n34" opacity="1" transform="translate(0 0) rotate(0) scale(1 1)"><rect x="-11" y="-157" width="17" height="62" rx="3" fill="#5288C4" stroke="none" stroke-width="2"></rect></g><g id="shelf.n35" opacity="1" transform="translate(0 0) rotate(0) scale(1 1)"><line x1="-6" y1="-148" x2="0" y2="-148" stroke="#FFFDF4" stroke-width="1.7" stroke-linecap="round"></line></g><g id="shelf.n36" opacity="1" transform="translate(0 0) rotate(0) scale(1 1)"><line x1="-6" y1="-104" x2="0" y2="-104" stroke="#FFFDF4" stroke-width="1.4" stroke-linecap="round"></line></g><g id="shelf.n37" opacity="1" transform="translate(0 0) rotate(0) scale(1 1)"><rect x="12" y="-168" width="17" height="73" rx="3" fill="#EF806B" stroke="none" stroke-width="2"></rect></g><g id="shelf.n38" opacity="1" transform="translate(0 0) rotate(0) scale(1 1)"><line x1="17" y1="-159" x2="23" y2="-159" stroke="#FFFDF4" stroke-width="1.7" stroke-linecap="round"></line></g><g id="shelf.n39" opacity="1" transform="translate(0 0) rotate(0) scale(1 1)"><line x1="17" y1="-104" x2="23" y2="-104" stroke="#FFFDF4" stroke-width="1.4" stroke-linecap="round"></line></g><g id="shelf.n40" opacity="1" transform="translate(0 0) rotate(0) scale(1 1)"><rect x="35" y="-153" width="17" height="58" rx="3" fill="#EDB94D" stroke="none" stroke-width="2"></rect></g><g id="shelf.n41" opacity="1" transform="translate(0 0) rotate(0) scale(1 1)"><line x1="40" y1="-144" x2="46" y2="-144" stroke="#FFFDF4" stroke-width="1.7" stroke-linecap="round"></line></g><g id="shelf.n42" opacity="1" transform="translate(0 0) rotate(0) scale(1 1)"><line x1="40" y1="-104" x2="46" y2="-104" stroke="#FFFDF4" stroke-width="1.4" stroke-linecap="round"></line></g><g id="shelf.n43" opacity="1" transform="translate(0 0) rotate(0) scale(1 1)"><rect x="58" y="-164" width="17" height="69" rx="3" fill="#219787" stroke="none" stroke-width="2"></rect></g><g id="shelf.n44" opacity="1" transform="translate(0 0) rotate(0) scale(1 1)"><line x1="63" y1="-155" x2="69" y2="-155" stroke="#FFFDF4" stroke-width="1.7" stroke-linecap="round"></line></g><g id="shelf.n45" opacity="1" transform="translate(0 0) rotate(0) scale(1 1)"><line x1="63" y1="-104" x2="69" y2="-104" stroke="#FFFDF4" stroke-width="1.4" stroke-linecap="round"></line></g><g id="shelf.n46" opacity="1" transform="translate(0 0) rotate(0) scale(1 1)"><rect x="-105" y="-95" width="210" height="9" rx="2" fill="#D8AD79" stroke="none" stroke-width="2"></rect></g><g id="shelf.n47" opacity="1" transform="translate(0 0) rotate(0) scale(1 1)"><rect x="-80" y="-245" width="17" height="62" rx="3" fill="#EDB94D" stroke="none" stroke-width="2"></rect></g><g id="shelf.n48" opacity="1" transform="translate(0 0) rotate(0) scale(1 1)"><line x1="-75" y1="-236" x2="-69" y2="-236" stroke="#FFFDF4" stroke-width="1.7" stroke-linecap="round"></line></g><g id="shelf.n49" opacity="1" transform="translate(0 0) rotate(0) scale(1 1)"><line x1="-75" y1="-192" x2="-69" y2="-192" stroke="#FFFDF4" stroke-width="1.4" stroke-linecap="round"></line></g><g id="shelf.n50" opacity="1" transform="translate(0 0) rotate(0) scale(1 1)"><rect x="-57" y="-256" width="17" height="73" rx="3" fill="#219787" stroke="none" stroke-width="2"></rect></g><g id="shelf.n51" opacity="1" transform="translate(0 0) rotate(0) scale(1 1)"><line x1="-52" y1="-247" x2="-46" y2="-247" stroke="#FFFDF4" stroke-width="1.7" stroke-linecap="round"></line></g><g id="shelf.n52" opacity="1" transform="translate(0 0) rotate(0) scale(1 1)"><line x1="-52" y1="-192" x2="-46" y2="-192" stroke="#FFFDF4" stroke-width="1.4" stroke-linecap="round"></line></g><g id="shelf.n53" opacity="1" transform="translate(0 0) rotate(0) scale(1 1)"><rect x="-34" y="-241" width="17" height="58" rx="3" fill="#5288C4" stroke="none" stroke-width="2"></rect></g><g id="shelf.n54" opacity="1" transform="translate(0 0) rotate(0) scale(1 1)"><line x1="-29" y1="-232" x2="-23" y2="-232" stroke="#FFFDF4" stroke-width="1.7" stroke-linecap="round"></line></g><g id="shelf.n55" opacity="1" transform="translate(0 0) rotate(0) scale(1 1)"><line x1="-29" y1="-192" x2="-23" y2="-192" stroke="#FFFDF4" stroke-width="1.4" stroke-linecap="round"></line></g><g id="shelf.n56" opacity="1" transform="translate(0 0) rotate(0) scale(1 1)"><rect x="-11" y="-252" width="17" height="69" rx="3" fill="#EF806B" stroke="none" stroke-width="2"></rect></g><g id="shelf.n57" opacity="1" transform="translate(0 0) rotate(0) scale(1 1)"><line x1="-6" y1="-243" x2="0" y2="-243" stroke="#FFFDF4" stroke-width="1.7" stroke-linecap="round"></line></g><g id="shelf.n58" opacity="1" transform="translate(0 0) rotate(0) scale(1 1)"><line x1="-6" y1="-192" x2="0" y2="-192" stroke="#FFFDF4" stroke-width="1.4" stroke-linecap="round"></line></g><g id="shelf.n59" opacity="1" transform="translate(0 0) rotate(0) scale(1 1)"><rect x="12" y="-237" width="17" height="54" rx="3" fill="#EDB94D" stroke="none" stroke-width="2"></rect></g><g id="shelf.n60" opacity="1" transform="translate(0 0) rotate(0) scale(1 1)"><line x1="17" y1="-228" x2="23" y2="-228" stroke="#FFFDF4" stroke-width="1.7" stroke-linecap="round"></line></g><g id="shelf.n61" opacity="1" transform="translate(0 0) rotate(0) scale(1 1)"><line x1="17" y1="-192" x2="23" y2="-192" stroke="#FFFDF4" stroke-width="1.4" stroke-linecap="round"></line></g><g id="shelf.n62" opacity="1" transform="translate(0 0) rotate(0) scale(1 1)"><rect x="35" y="-248" width="17" height="65" rx="3" fill="#219787" stroke="none" stroke-width="2"></rect></g><g id="shelf.n63" opacity="1" transform="translate(0 0) rotate(0) scale(1 1)"><line x1="40" y1="-239" x2="46" y2="-239" stroke="#FFFDF4" stroke-width="1.7" stroke-linecap="round"></line></g><g id="shelf.n64" opacity="1" transform="translate(0 0) rotate(0) scale(1 1)"><line x1="40" y1="-192" x2="46" y2="-192" stroke="#FFFDF4" stroke-width="1.4" stroke-linecap="round"></line></g><g id="shelf.n65" opacity="1" transform="translate(0 0) rotate(0) scale(1 1)"><rect x="58" y="-233" width="17" height="50" rx="3" fill="#5288C4" stroke="none" stroke-width="2"></rect></g><g id="shelf.n66" opacity="1" transform="translate(0 0) rotate(0) scale(1 1)"><line x1="63" y1="-224" x2="69" y2="-224" stroke="#FFFDF4" stroke-width="1.7" stroke-linecap="round"></line></g><g id="shelf.n67" opacity="1" transform="translate(0 0) rotate(0) scale(1 1)"><line x1="63" y1="-192" x2="69" y2="-192" stroke="#FFFDF4" stroke-width="1.4" stroke-linecap="round"></line></g><g id="shelf.n68" opacity="1" transform="translate(0 0) rotate(0) scale(1 1)"><rect x="-105" y="-183" width="210" height="9" rx="2" fill="#D8AD79" stroke="none" stroke-width="2"></rect></g></g></g></svg>