<svg xmlns="http://www.w3.org/2000/svg" viewBox="-110 -210 220 230" role="img"><g id="test-tubes" opacity="1" transform="translate(0 0) rotate(0) scale(1 1)"><g ><g id="test-tubes.v14" opacity="1" transform="translate(0 0) rotate(0) scale(1 1)"><ellipse cx="0" cy="7" rx="65" ry="9" fill="#D4D3C4"></ellipse></g><g id="test-tubes.body" opacity="1" transform="translate(0 0) rotate(0) scale(1 1)"><g ><g id="test-tubes.v1" opacity="1" transform="translate(0 0) rotate(0) scale(1 1)"><rect x="-63" y="-176" width="26" height="135" rx="12" fill="#C3E2DF" stroke="#354752" stroke-width="1.8"></rect></g><g id="test-tubes.v2" opacity="1" transform="translate(0 0) rotate(0) scale(1 1)"><rect x="-59" y="-105" width="18" height="54" rx="8" fill="#EF806B" stroke="#354752" stroke-width="1.8"></rect></g><g id="test-tubes.v3" opacity="1" transform="translate(0 0) rotate(0) scale(1 1)"><rect x="-67" y="-180" width="34" height="10" rx="3" fill="#FFFDF4" stroke="#354752" stroke-width="1.8"></rect></g><g id="test-tubes.v4" opacity="1" transform="translate(0 0) rotate(0) scale(1 1)"><rect x="-13" y="-176" width="26" height="135" rx="12" fill="#C3E2DF" stroke="#354752" stroke-width="1.8"></rect></g><g id="test-tubes.v5" opacity="1" transform="translate(0 0) rotate(0) scale(1 1)"><rect x="-9" y="-91" width="18" height="40" rx="8" fill="#219787" stroke="#354752" stroke-width="1.8"></rect></g><g id="test-tubes.v6" opacity="1" transform="translate(0 0) rotate(0) scale(1 1)"><rect x="-17" y="-180" width="34" height="10" rx="3" fill="#FFFDF4" stroke="#354752" stroke-width="1.8"></rect></g><g id="test-tubes.v7" opacity="1" transform="translate(0 0) rotate(0) scale(1 1)"><rect x="37" y="-176" width="26" height="135" rx="12" fill="#C3E2DF" stroke="#354752" stroke-width="1.8"></rect></g><g id="test-tubes.v8" opacity="1" transform="translate(0 0) rotate(0) scale(1 1)"><rect x="41" y="-77" width="18" height="26" rx="8" fill="#EDB94D" stroke="#354752" stroke-width="1.8"></rect></g><g id="test-tubes.v9" opacity="1" transform="translate(0 0) rotate(0) scale(1 1)"><rect x="33" y="-180" width="34" height="10" rx="3" fill="#FFFDF4" stroke="#354752" stroke-width="1.8"></rect></g><g id="test-tubes.v10" opacity="1" transform="translate(0 0) rotate(0) scale(1 1)"><rect x="-87" y="-70" width="174" height="17" rx="8" fill="#D8AD79" stroke="#354752" stroke-width="1.8"></rect></g><g id="test-tubes.v11" opacity="1" transform="translate(0 0) rotate(0) scale(1 1)"><rect x="-80" y="-13" width="160" height="16" rx="8" fill="#8E7158" stroke="#354752" stroke-width="1.8"></rect></g><g id="test-tubes.v12" opacity="1" transform="translate(0 0) rotate(0) scale(1 1)"><line x1="-76" y1="-53" x2="-76" y2="-14" stroke="#8E7158" stroke-width="8" stroke-linecap="round"></line></g><g id="test-tubes.v13" opacity="1" transform="translate(0 0) rotate(0) scale(1 1)"><line x1="76" y1="-53" x2="76" y2="-14" stroke="#8E7158" stroke-width="8" stroke-linecap="round"></line></g></g></g></g></g></svg>