<svg xmlns="http://www.w3.org/2000/svg" viewBox="-110 -210 220 230" role="img"><g id="workshop" opacity="1" transform="translate(0 0) rotate(0) scale(1 1)"><g ><g id="workshop.v16" opacity="1" transform="translate(0 0) rotate(0) scale(1 1)"><ellipse cx="0" cy="7" rx="65" ry="9" fill="#D4D3C4"></ellipse></g><g id="workshop.body" opacity="1" transform="translate(0 0) rotate(0) scale(1 1)"><g ><g id="workshop.v1" opacity="1" transform="translate(0 0) rotate(0) scale(1 1)"><rect x="-75" y="-133" width="150" height="130" rx="4" fill="#FFFDFC" stroke="#354752" stroke-width="1.8"></rect></g><g id="workshop.v2" opacity="1" transform="translate(0 0) rotate(0) scale(1 1)"><path d="M-87 -134 L0 -192 L87 -134Z" fill="#5288C4" stroke="#354752" stroke-width="2" stroke-linecap="round" stroke-linejoin="round"></path></g><g id="workshop.v3" opacity="1" transform="translate(0 0) rotate(0) scale(1 1)"><rect x="-57" y="-113" width="25" height="25" rx="3" fill="#C3E2DF" stroke="#354752" stroke-width="1.8"></rect></g><g id="workshop.v4" opacity="1" transform="translate(0 0) rotate(0) scale(1 1)"><rect x="-13" y="-113" width="25" height="25" rx="3" fill="#C3E2DF" stroke="#354752" stroke-width="1.8"></rect></g><g id="workshop.v5" opacity="1" transform="translate(0 0) rotate(0) scale(1 1)"><rect x="31" y="-113" width="25" height="25" rx="3" fill="#C3E2DF" stroke="#354752" stroke-width="1.8"></rect></g><g id="workshop.v6" opacity="1" transform="translate(0 0) rotate(0) scale(1 1)"><rect x="-57" y="-75" width="25" height="25" rx="3" fill="#C3E2DF" stroke="#354752" stroke-width="1.8"></rect></g><g id="workshop.v7" opacity="1" transform="translate(0 0) rotate(0) scale(1 1)"><rect x="-13" y="-75" width="25" height="25" rx="3" fill="#C3E2DF" stroke="#354752" stroke-width="1.8"></rect></g><g id="workshop.v8" opacity="1" transform="translate(0 0) rotate(0) scale(1 1)"><rect x="31" y="-75" width="25" height="25" rx="3" fill="#C3E2DF" stroke="#354752" stroke-width="1.8"></rect></g><g id="workshop.v9" opacity="1" transform="translate(0 0) rotate(0) scale(1 1)"><rect x="-18" y="-40" width="36" height="40" rx="5" fill="#8E7158" stroke="#354752" stroke-width="1.8"></rect></g><g id="workshop.v10" opacity="1" transform="translate(0 0) rotate(0) scale(1 1)"><rect x="-46" y="-76" width="92" height="74" rx="1" fill="#D8AD79" stroke="#354752" stroke-width="1.8"></rect></g><g id="workshop.v11" opacity="1" transform="translate(0 0) rotate(0) scale(1 1)"><line x1="-40" y1="-66" x2="40" y2="-66" stroke="#AAB4AD" stroke-width="3" stroke-linecap="round"></line></g><g id="workshop.v12" opacity="1" transform="translate(0 0) rotate(0) scale(1 1)"><line x1="-40" y1="-52" x2="28" y2="-52" stroke="#AAB4AD" stroke-width="3" stroke-linecap="round"></line></g><g id="workshop.v13" opacity="1" transform="translate(0 0) rotate(0) scale(1 1)"><line x1="-40" y1="-38" x2="40" y2="-38" stroke="#AAB4AD" stroke-width="3" stroke-linecap="round"></line></g><g id="workshop.v14" opacity="1" transform="translate(0 0) rotate(0) scale(1 1)"><line x1="-40" y1="-24" x2="28" y2="-24" stroke="#AAB4AD" stroke-width="3" stroke-linecap="round"></line></g><g id="workshop.v15" opacity="1" transform="translate(0 0) rotate(0) scale(1 1)"><line x1="-40" y1="-10" x2="40" y2="-10" stroke="#AAB4AD" stroke-width="3" stroke-linecap="round"></line></g></g></g></g></g></svg>